<svg width="119" height="31" viewBox="0 0 119 31" fill="none" xmlns="http://www.w3.org/2000/svg">
<mask id="mask0_30_8211" style="mask-type:alpha" maskUnits="userSpaceOnUse" x="-4" y="0" width="24" height="31">
<path d="M0 20.0479C0 24.6868 3.90155 27.6048 8.11523 27.6048C11.1584 27.6048 16.0744 26.6321 16.0744 19.4494C16.0744 17.4292 13.1092 15.5587 8.19326 14.9602C4.78986 14.5458 0.312124 12.8652 0.312124 8.89972C0.312124 4.26088 6.00839 3.58749 8.0372 3.58749C9.75388 3.58749 15.4501 4.48534 15.4501 9.42347" stroke="#09FF00" stroke-width="6.4349"/>
</mask>
<g mask="url(#mask0_30_8211)">
<path d="M11.3639 12.8813C7.46784 12.2106 3.48966 11.1455 3.48966 9.13344C3.48966 7.47662 5.41719 6.17475 7.87797 6.17475C9.88758 6.17475 11.692 7.51598 12.2252 9.29131H18.7461C18.7461 4.28105 13.7837 0.493958 7.87797 0.493958C1.31603 0.493958 -2.86721 4.16284 -2.86721 9.37017C-2.86721 13.4337 1.15201 15.6823 5.95029 16.7474C10.2977 17.7337 12.9224 18.3254 12.9224 20.6924C12.9224 23.0989 10.9128 24.4797 7.87797 24.4797C5.25316 24.4797 3.40757 22.5861 3.12058 20.1401H-3.27734C-3.27734 25.5054 1.5211 30.1604 7.87797 30.1604C14.85 30.1604 19.2792 26.1366 19.2792 20.6924C19.2792 16.1951 15.3832 13.5914 11.3639 12.8813Z" fill="white"/>
</g>
<mask id="mask1_30_8211" style="mask-type:alpha" maskUnits="userSpaceOnUse" x="21" y="7" width="26" height="24">
<path d="M43.2312 30.0866C43.2312 30.0866 42.9971 21.183 42.9971 18.8635C42.9971 15.4218 39.9539 10.334 32.775 10.334C27.8591 10.334 24.3477 15.2722 24.3477 19.6117C24.3477 24.9988 29.4197 27.6175 33.6334 27.6175C36.6766 27.6175 42.9971 25.8966 42.919 17.3671" stroke="#09FF00" stroke-width="6.28525"/>
</mask>
<g mask="url(#mask1_30_8211)">
<path d="M33.4502 7.60776C26.7242 7.60776 21.2695 12.6574 21.2695 18.8905C21.2695 25.1236 26.7242 30.1732 33.4502 30.1732C36.1159 30.1732 38.4946 28.8713 39.889 26.8989V29.542H45.6307V18.8905C45.6307 12.6574 40.1761 7.60776 33.4502 7.60776ZM33.5732 24.808C30.1691 24.808 27.4213 22.1649 27.4213 18.8905C27.4213 15.6161 30.1691 12.973 33.5732 12.973C36.9772 12.973 39.725 15.6161 39.725 18.8905C39.725 22.1649 36.9772 24.808 33.5732 24.808Z" fill="white"/>
</g>
<path d="M55.685 10.0211V1.14493H49.5332V29.5491H55.2749L55.4049 23.3596L55.4192 19.097L55.614 13.4051L55.685 10.0211ZM61.5907 12.98C64.9947 12.98 58.1867 12.98 61.5907 12.98V12.98Z" fill="white"/>
<mask id="mask2_30_8211" style="mask-type:alpha" maskUnits="userSpaceOnUse" x="50" y="7" width="24" height="24">
<path d="M54.1302 18.7667C54.1294 18.8137 54.1289 18.8609 54.1289 18.908C54.129 23.4218 57.8104 27.0866 62.3445 27.0866C66.8786 27.0866 70.56 23.4218 70.56 18.908C70.56 14.3942 66.8786 10.7294 62.3445 10.7294C57.8577 10.7294 54.206 14.318 54.1302 18.7667Z" stroke="#09FF00" stroke-width="6.4349"/>
</mask>
<g mask="url(#mask2_30_8211)">
<path d="M61.7101 7.61462C59.3724 7.61462 57.2398 8.52189 55.6814 10.021C55.6814 10.021 52.9313 11.9129 53.0864 18.9244C53.2159 24.7811 55.2713 26.9058 55.2713 26.9058C56.6657 28.8782 59.0444 30.1801 61.7101 30.1801C68.4362 30.1801 73.8907 25.1305 73.8907 18.8974C73.8907 12.6642 68.4362 7.61462 61.7101 7.61462ZM61.5871 24.8149C58.1831 24.8149 55.4353 22.1718 55.4353 18.8974C55.4353 15.6229 58.1831 12.9798 61.5871 12.9798C64.9911 12.9798 67.7389 15.6229 67.7389 18.8974C67.7389 22.1718 64.9911 24.8149 61.5871 24.8149Z" fill="white"/>
</g>
<path d="M76.7676 29.5232H82.9195V1.11905H76.7676V29.5232Z" fill="white"/>
<mask id="mask3_30_8211" style="mask-type:alpha" maskUnits="userSpaceOnUse" x="85" y="7" width="26" height="25">
<path d="M91.7618 18.9084H107.446C107.446 18.9084 107.992 10.5281 98.0823 10.5281C89.4989 10.5281 88.5625 17.7112 88.5625 19.0581C88.5625 20.4049 90.3572 27.7377 98.3164 27.7377C103.779 27.7377 106.198 24.4454 106.198 22.3504" stroke="#09FF00" stroke-width="6.73419"/>
</mask>
<g mask="url(#mask3_30_8211)">
<path d="M98.0904 7.5025C91.283 7.5025 85.7871 12.5521 85.7871 18.7852C85.7871 25.0183 91.283 30.068 98.0904 30.068C103.504 30.068 108.097 26.8725 109.739 22.4146H102.93C101.823 23.7955 100.06 24.7028 98.0904 24.7028C95.4249 24.7028 93.2104 23.0853 92.3083 20.8366H110.19C110.312 20.166 110.394 19.4953 110.394 18.7852C110.394 12.5521 104.899 7.5025 98.0904 7.5025ZM92.3083 16.7338C93.2104 14.4852 95.4249 12.8677 98.0904 12.8677C100.715 12.8677 102.97 14.4852 103.874 16.7338H92.3083Z" fill="white"/>
</g>
<path d="M115.486 26.6285C115.486 26.6294 115.486 26.6299 115.486 26.6299" stroke="white" stroke-width="6.28525" stroke-linecap="round"/>
</svg>
