<svg width="32" height="31" viewBox="0 0 32 31" fill="none" xmlns="http://www.w3.org/2000/svg">
<g clip-path="url(#clip0_241_371)">
<path d="M27.5494 7.02605V24.1614C27.5494 25.5134 26.4534 26.6094 25.1014 26.6094H20.5114C20.1734 26.6094 19.8995 26.3355 19.8995 25.9973V18.6536H22.7636C23.0544 18.6537 23.3052 18.449 23.3633 18.1641L23.804 15.9609C23.8222 15.8719 23.7999 15.7794 23.7432 15.7085C23.6863 15.6377 23.601 15.5955 23.5102 15.5938H19.8995V11.6159C19.8995 11.4469 20.0365 11.3099 20.2054 11.3099H23.2654C23.6035 11.3099 23.8774 11.0359 23.8774 10.6979V8.86198C23.8774 8.524 23.6035 8.25 23.2654 8.25H20.2054C18.1775 8.25 16.5335 9.89396 16.5335 11.9219V15.5938H15.028C14.69 15.5938 14.416 15.8677 14.416 16.2058V18.0417C14.416 18.3797 14.69 18.6536 15.028 18.6536H16.5335V25.9973C16.5335 26.3355 16.2595 26.6094 15.9214 26.6094H7.96556C6.61357 26.6094 5.51758 25.5134 5.51758 24.1614V7.02605C5.51758 5.67409 6.61357 4.57812 7.96556 4.57812H25.1014C26.4534 4.57812 27.5494 5.67409 27.5494 7.02605Z" fill="white"/>
</g>
<defs>
<clipPath id="clip0_241_371">
<rect width="30.875" height="29.375" fill="white" transform="translate(0.625 0.90625)"/>
</clipPath>
</defs>
</svg>
