<svg width="32" height="31" viewBox="0 0 32 31" fill="none" xmlns="http://www.w3.org/2000/svg">
<g clip-path="url(#clip0_241_363)">
<path fill-rule="evenodd" clip-rule="evenodd" d="M11.7899 4.57812H21.5817C24.9617 4.57812 27.7017 7.31805 27.7017 10.6979V20.4895C27.7017 23.8694 24.9617 26.6094 21.5817 26.6094H11.7899C8.40992 26.6094 5.66992 23.8694 5.66992 20.4895V10.6979C5.66992 7.31805 8.40992 4.57812 11.7899 4.57812ZM22.5053 11.002C23.1813 11.002 23.7293 10.454 23.7293 9.77803C23.7293 9.10207 23.1813 8.55408 22.5053 8.55408C21.8292 8.55408 21.2812 9.10207 21.2812 9.77803C21.2812 10.454 21.8292 11.002 22.5053 11.002ZM16.6872 10.086C13.6451 10.086 11.1791 12.5519 11.1791 15.5938C11.1791 18.6357 13.6451 21.1016 16.6872 21.1016C19.729 21.1016 22.1951 18.6357 22.1951 15.5938C22.1983 14.132 21.619 12.7292 20.5855 11.6956C19.5517 10.6619 18.1489 10.0827 16.6872 10.086ZM13.321 15.5918C13.321 17.4508 14.828 18.9578 16.687 18.9578C18.5459 18.9578 20.0529 17.4508 20.0529 15.5918C20.0529 13.7329 18.5459 12.226 16.687 12.226C14.828 12.226 13.321 13.7329 13.321 15.5918Z" fill="white"/>
</g>
<defs>
<clipPath id="clip0_241_363">
<rect width="30.875" height="29.375" fill="white" transform="translate(0.625 0.90625)"/>
</clipPath>
</defs>
</svg>
