<svg width="32" height="32" viewBox="0 0 32 32" fill="none" xmlns="http://www.w3.org/2000/svg">
<g clip-path="url(#clip0_241_379)">
<path fill-rule="evenodd" clip-rule="evenodd" d="M26.8633 25.3645C26.8633 26.5889 26.0087 27.6135 24.8638 27.8736V27.9319H24.4614C24.4052 27.9356 24.3487 27.9375 24.2916 27.9375H19.4699C19.4413 27.9375 19.4131 27.9356 19.3853 27.9319H14.7327C14.705 27.9356 14.6768 27.9375 14.6481 27.9375H6.29037C4.8701 27.9375 3.71875 26.7856 3.71875 25.3645V7.35417C3.71875 5.93318 4.8701 4.78125 6.29037 4.78125H24.2916C25.7119 4.78125 26.8633 5.93318 26.8633 7.35417V25.3645ZM20.4035 11.3345C20.5107 11.4045 20.6214 11.4691 20.7351 11.528C21.4748 11.8977 22.1975 12.0103 22.5533 11.9716V14.8504C22.5533 14.8504 21.5377 14.8082 20.7838 14.6077C19.7332 14.3259 19.0597 13.8933 19.0597 13.8933C19.0597 13.8933 18.5922 13.5834 18.5572 13.5623V19.5113C18.5572 19.8419 18.4699 20.6694 18.208 21.3591C17.9786 21.949 17.6505 22.4953 17.2379 22.9748C17.2379 22.9748 16.5922 23.7772 15.4581 24.3157C14.5127 24.7648 13.6716 24.7895 13.3376 24.7992C13.3103 24.8 13.2864 24.8008 13.2661 24.8015C13.2661 24.8015 11.7132 24.8642 10.3126 23.9102L10.3056 23.9031V23.9102C9.83208 23.579 9.40981 23.1797 9.0524 22.725C8.60916 22.1583 8.3372 21.4862 8.26701 21.2892V21.2821C8.15541 20.9476 7.92134 20.1382 7.95643 19.3569C8.01222 17.9805 8.47301 17.1323 8.59514 16.9213C8.91606 16.3425 9.33529 15.8243 9.83394 15.39C10.403 14.9118 11.0648 14.557 11.7776 14.3481C12.4903 14.139 13.2385 14.0804 13.975 14.1757L13.9715 17.1285C13.7289 17.0493 13.4753 17.009 13.2201 17.0091C11.8722 17.0091 10.7797 18.1109 10.7797 19.4716C10.7797 20.8322 11.8722 21.934 13.2201 21.934C13.6398 21.9345 14.0524 21.8253 14.4172 21.6174C14.7672 21.4181 15.063 21.1356 15.2785 20.7947C15.494 20.454 15.6227 20.0653 15.6532 19.663V19.6567C15.6549 19.6482 15.6549 19.6397 15.6549 19.6317C15.6553 19.6252 15.6557 19.6192 15.6561 19.6131C15.6569 19.6008 15.6577 19.5891 15.6577 19.5767C15.6641 19.4297 15.6641 19.2809 15.6641 19.1304V7.91678H18.5572C18.5526 7.91678 18.5225 8.19467 18.5955 8.62417H18.5919C18.6792 9.14162 18.9165 9.88067 19.5518 10.6092C19.8056 10.8843 20.0915 11.1279 20.4035 11.3345Z" fill="white"/>
</g>
<defs>
<clipPath id="clip0_241_379">
<rect width="30.875" height="30.875" fill="white" transform="translate(0.625 0.921875)"/>
</clipPath>
</defs>
</svg>
