<svg width="31" height="31" viewBox="0 0 31 31" fill="none" xmlns="http://www.w3.org/2000/svg">
<g clip-path="url(#clip0_241_367)">
<path d="M27.5827 8.81781C26.9511 9.66032 26.1876 10.3953 25.3217 10.9942C25.3217 11.2143 25.3217 11.4344 25.3217 11.6667C25.3287 15.6634 23.7321 19.4958 20.8901 22.3047C18.048 25.1134 14.1982 26.6638 10.2037 26.6081C7.89433 26.6158 5.61457 26.0885 3.54296 25.0676C3.43126 25.0186 3.35922 24.9082 3.35963 24.7863V24.6517C3.35963 24.4762 3.50189 24.3339 3.6774 24.3339C5.94743 24.259 8.13646 23.472 9.9348 22.0841C7.88012 22.0427 6.03143 20.8255 5.18065 18.954C5.13767 18.8518 5.15105 18.7344 5.21594 18.6446C5.28085 18.5547 5.38789 18.5052 5.4984 18.5138C6.12286 18.5766 6.75357 18.5185 7.35607 18.3426C5.08786 17.8719 3.38355 15.9888 3.13965 13.6841C3.13098 13.5736 3.18052 13.4665 3.27038 13.4016C3.36024 13.3366 3.47744 13.3233 3.57962 13.3663C4.1883 13.6348 4.84538 13.7763 5.51062 13.782C3.52313 12.4775 2.66467 9.99641 3.42074 7.74184C3.49878 7.52276 3.68629 7.36092 3.91434 7.31578C4.14239 7.27066 4.37737 7.34889 4.5329 7.52174C7.21489 10.3761 10.9 12.077 14.8112 12.2658C14.711 11.8661 14.6617 11.4552 14.6645 11.0431C14.7011 8.88216 16.0383 6.95713 18.0499 6.16926C20.0616 5.38139 22.3495 5.88661 23.8428 7.44839C24.8608 7.25448 25.8449 6.91258 26.7638 6.43355C26.8311 6.39153 26.9166 6.39153 26.9838 6.43355C27.0258 6.50089 27.0258 6.5863 26.9838 6.65364C26.5386 7.67288 25.7868 8.52775 24.8328 9.09904C25.6682 9.00216 26.4888 8.80511 27.2771 8.51214C27.3435 8.46696 27.4308 8.46696 27.4972 8.51214C27.5527 8.53758 27.5943 8.58622 27.6107 8.64512C27.6273 8.70401 27.617 8.76719 27.5827 8.81781Z" fill="white"/>
</g>
<defs>
<clipPath id="clip0_241_367">
<rect width="30.875" height="29.375" fill="white" transform="translate(0.125 0.90625)"/>
</clipPath>
</defs>
</svg>
