<svg width="31" height="31" viewBox="0 0 31 31" fill="none" xmlns="http://www.w3.org/2000/svg">
<g clip-path="url(#clip0_241_375)">
<path fill-rule="evenodd" clip-rule="evenodd" d="M23.2348 6.21824L25.0219 6.40183C27.1375 6.64096 28.7262 8.44673 28.6939 10.5755V20.612C28.7262 22.7408 27.1375 24.5465 25.0219 24.7858L23.3083 24.9694C17.9614 25.52 12.572 25.52 7.2251 24.9694L5.43808 24.7858C3.32242 24.5465 1.73374 22.7408 1.76611 20.612V10.5755C1.73374 8.44673 3.32242 6.64096 5.43808 6.40183L7.15166 6.21824C12.4986 5.66749 17.888 5.66749 23.2348 6.21824ZM14.1406 19.5348L18.9019 16.3526H18.9753C19.2319 16.1855 19.3867 15.9 19.3867 15.5937C19.3867 15.2875 19.2319 15.0021 18.9753 14.8349L14.2141 11.6526C13.933 11.4626 13.57 11.4431 13.2702 11.602C12.9703 11.7609 12.7826 12.0721 12.782 12.4114V18.7761C12.7978 19.0919 12.9751 19.3774 13.2512 19.5316C13.5273 19.6858 13.8634 19.6871 14.1406 19.5348Z" fill="white"/>
</g>
<defs>
<clipPath id="clip0_241_375">
<rect width="30.875" height="29.375" fill="white" transform="translate(0.125 0.90625)"/>
</clipPath>
</defs>
</svg>
