<svg width="243" height="47" viewBox="0 0 243 47" fill="none" xmlns="http://www.w3.org/2000/svg">
<g clip-path="url(#clip0_241_40)">
<path d="M0 0H17.8024C21.1933 0 23.7365 0.84694 25.6204 2.25851C27.6926 3.95239 28.823 6.3991 28.823 9.41042C28.823 12.8923 27.4101 15.0567 24.5842 16.3741V16.5624C28.3519 17.7857 30.5185 21.1735 30.5185 25.22C30.5185 29.0782 29.0113 32.0896 26.5622 33.9717C24.4901 35.4774 21.8527 36.136 18.2734 36.136H0V0ZM16.0128 14.1156C17.8966 14.1156 19.3095 13.0805 19.3095 10.9161C19.3095 8.8458 17.8966 7.81065 15.9186 7.81065H9.79604V14.0215H16.0128V14.1156ZM16.8605 28.1371C19.027 28.1371 20.6282 26.8197 20.6282 24.4671C20.6282 21.9263 18.9328 20.797 16.8605 20.797H9.89022V28.2313H16.8605V28.1371Z" fill="white"/>
<path d="M32.1211 0H41.4463V36.2301H32.1211V0Z" fill="white"/>
<path d="M43.3281 23.3382C43.3281 15.151 48.6029 9.69299 56.7977 9.69299C64.9923 9.69299 70.1731 15.2452 70.1731 23.3382C70.1731 31.5252 64.9923 36.9833 56.7977 36.9833C48.6029 36.9833 43.3281 31.5252 43.3281 23.3382ZM60.8479 23.3382C60.8479 18.8212 59.435 15.998 56.6092 15.998C53.7835 15.998 52.4648 18.8212 52.4648 23.3382C52.4648 27.8551 53.7835 30.7724 56.6092 30.7724C59.435 30.6783 60.8479 27.8551 60.8479 23.3382Z" fill="white"/>
<path d="M71.2109 23.3382C71.2109 15.151 76.4857 9.69299 84.6805 9.69299C92.8753 9.69299 97.9617 15.151 97.9617 23.3382C97.9617 31.5252 92.7811 36.9833 84.5863 36.9833C76.4857 36.9833 71.2109 31.5252 71.2109 23.3382ZM88.7309 23.3382C88.7309 18.8212 87.3179 15.998 84.4922 15.998C81.6665 15.998 80.3476 18.8212 80.3476 23.3382C80.3476 27.8551 81.6665 30.7724 84.4922 30.7724C87.3179 30.6783 88.7309 27.8551 88.7309 23.3382Z" fill="white"/>
<path d="M99.8438 10.3512H108.509V14.2095H108.698C110.393 11.1982 112.748 9.59839 116.516 9.59839C119.813 9.59839 122.262 11.1982 123.486 14.0213H123.674C125.747 10.6335 128.478 9.59839 131.681 9.59839C137.709 9.59839 140.252 14.0213 140.252 19.9499V36.1358H131.21V21.5496C131.21 18.9147 130.362 17.2208 128.102 17.2208C125.841 17.2208 124.711 19.2911 124.711 22.1143V36.1358H115.668V21.5496C115.668 18.9147 114.82 17.2208 112.56 17.2208C110.299 17.2208 109.169 19.2911 109.169 22.1143V36.1358H99.8438V10.3512Z" fill="white"/>
<path d="M151.65 32.7482H151.556V36.136H142.891V0H151.933V12.9864H152.121C153.817 10.7279 156.172 9.50453 159.468 9.50453C165.968 9.50453 169.736 15.339 169.736 23.1497C169.736 31.9013 165.685 36.9829 158.903 36.9829C156.077 36.9829 153.158 35.6655 151.65 32.7482ZM160.41 23.0555C160.41 18.915 158.903 16.1859 156.172 16.1859C153.346 16.1859 151.65 18.915 151.65 23.0555C151.65 27.1962 153.44 29.9251 156.172 29.9251C158.903 29.9251 160.41 27.2902 160.41 23.0555Z" fill="white"/>
<path d="M170.771 23.2435C170.771 15.1505 176.14 9.59839 183.864 9.59839C187.726 9.59839 190.646 10.8217 192.907 12.9861C195.921 15.9034 197.239 20.4204 197.145 25.6903H179.814C180.191 28.8897 181.698 30.5836 184.429 30.5836C186.03 30.5836 187.443 29.8308 188.008 28.1369H196.769C195.262 34.0655 190.646 36.9827 184.147 36.9827C176.14 36.8886 170.771 31.4305 170.771 23.2435ZM179.814 20.5146H188.103C187.914 17.409 186.219 15.8093 184.053 15.8093C181.509 15.7152 180.096 17.5031 179.814 20.5146Z" fill="white"/>
<path d="M207.412 14.7745H207.601C209.484 11.1985 211.933 9.78699 215.042 9.78699C215.794 9.78699 216.267 9.88108 216.549 10.0693V17.9741H216.359C210.991 17.033 207.883 19.5738 207.883 25.4083V36.2303H198.746V10.3516H207.412V14.7745Z" fill="white"/>
<path d="M217.49 36.2299H226.251C226.627 37.3592 227.758 38.3945 229.923 38.3945C232.844 38.3945 233.88 36.6064 233.88 33.8775V31.9953H233.691C232.279 33.6892 230.301 34.9126 227.474 34.9126C221.917 34.9126 217.02 30.7719 217.02 22.679C217.02 15.2447 220.975 9.50439 227.003 9.50439C230.488 9.50439 232.561 10.9159 233.973 13.0803H234.162V10.2572H242.828V32.6541C242.828 36.7946 241.415 39.9942 239.248 41.8763C236.987 43.8525 233.786 44.6995 230.112 44.6995C223.142 44.7934 218.337 41.9703 217.49 36.2299ZM234.257 22.3025C234.257 19.103 232.75 16.4681 230.112 16.4681C227.569 16.4681 225.967 18.7267 225.967 22.3025C225.967 25.7844 227.569 28.2311 230.112 28.2311C232.655 28.2311 234.257 25.6903 234.257 22.3025Z" fill="white"/>
</g>
<defs>
<clipPath id="clip0_241_40">
<rect width="242.828" height="46.3412" fill="white"/>
</clipPath>
</defs>
</svg>
