<svg width="40" height="40" viewBox="0 0 40 40" fill="none" xmlns="http://www.w3.org/2000/svg">
<path fill-rule="evenodd" clip-rule="evenodd" d="M36.1882 10.1215C36.1882 8.34456 34.7477 6.90405 32.9708 6.90405H7.23113C5.45418 6.90405 4.01367 8.34456 4.01367 10.1215V29.4262C4.01367 31.2032 5.45418 32.6437 7.23113 32.6437H32.9708C34.7477 32.6437 36.1882 31.2032 36.1882 29.4262V10.1215ZM16.8835 27.0131C16.8835 27.4574 16.5234 27.8175 16.0792 27.8175H11.253C10.8087 27.8175 10.4486 27.4574 10.4486 27.0131V25.4044C10.4486 24.9601 10.8087 24.6 11.253 24.6H16.0792C16.5234 24.6 16.8835 24.9601 16.8835 25.4044V27.0131ZM32.1663 19.7738C32.6106 19.7738 32.9708 19.4137 32.9708 18.9695V15.7521C32.9708 15.3078 32.6106 14.9477 32.1663 14.9477H8.03549C7.59125 14.9477 7.23113 15.3078 7.23113 15.7521V18.9695C7.23113 19.4137 7.59125 19.7738 8.03549 19.7738H32.1663Z" fill="#6FDBD4"/>
</svg>
