<svg width="147" height="47" viewBox="0 0 147 47" fill="none" xmlns="http://www.w3.org/2000/svg">
<g clip-path="url(#clip0_241_51)">
<path fill-rule="evenodd" clip-rule="evenodd" d="M11.3208 45.3738H14.7182V27.2243H11.3208V45.3738ZM23.7745 45.1015H26.8173V33.6503L39.6255 45.3738V27.4966H36.5911V38.752L23.7745 27.2243V45.1015ZM46.572 40.7059C48.228 41.9963 50.216 42.7422 52.3471 42.7422C54.423 42.7422 55.8792 42.0275 55.8792 40.4494C55.8792 39.0739 54.9506 38.5352 53.3241 37.9324L50.691 37.018C48.2636 36.1559 46.4173 34.8966 46.4173 32.0027C46.4173 28.9073 49.2122 27.2243 52.5541 27.2243C54.6017 27.2243 56.4676 27.7389 57.9253 28.6507V31.7205C56.4095 30.6003 54.7506 29.829 52.6194 29.829C50.7846 29.829 49.4134 30.5138 49.4134 31.9417C49.4134 33.232 50.2741 33.7482 51.7899 34.2671L54.7236 35.2966C57.5666 36.2962 58.8711 37.8459 58.8711 40.3954C58.8711 43.6029 56.0494 45.3738 52.3471 45.3738C49.914 45.3738 47.8452 44.6932 46.572 43.8339V40.7059ZM66.7973 45.3738H70.1932V27.2243H66.7973V45.3738ZM86.1251 42.6273C89.9535 42.6273 91.9996 40.1715 91.9996 36.2948C91.9996 32.3898 89.9521 29.9424 86.1251 29.9424H82.3393V42.6273H86.1251ZM79.2481 27.2243H86.2386C91.6196 27.2243 95.0993 30.7691 95.0993 36.2948C95.0993 41.8247 91.6196 45.3738 86.2386 45.3738H79.2481V27.2243ZM112.083 27.2243V29.9424H103.863V34.3096H111.235V36.9966H103.862V42.6273H112.083V45.3738H100.761V27.2243H112.083ZM124.138 35.4426H127.509C129.504 35.4426 130.628 34.348 130.628 32.6649C130.628 30.9817 129.504 29.8857 127.509 29.8857H124.138V35.444V35.4426ZM124.138 38.0091V45.3738H121.14V27.2243H127.566C131.229 27.2243 133.6 29.1115 133.6 32.6649C133.6 35.7035 132.284 37.4489 129.481 37.8971L135.858 45.3738H132.446L126.272 38.0105H124.14L124.138 38.0091ZM10.134 9.34416C11.4626 8.85781 12.4976 7.39876 12.4976 5.39239C12.4976 2.04891 10.134 0.316198 6.35234 0.316198H0V18.9805H6.94218C10.7238 18.9805 13.0875 17.1258 13.0875 13.6306C13.0875 11.654 11.8468 9.92126 10.134 9.34416ZM2.98333 8.15877V3.0528H6.32397C8.42251 3.0528 9.54409 3.81282 9.54409 5.5753C9.54409 7.33779 8.42109 8.15877 6.32397 8.15877H2.98333ZM2.98333 10.7734H6.88264C8.95281 10.7734 10.0744 11.8057 10.0744 13.5086C10.0744 15.1803 8.9514 16.2452 6.88406 16.2452H2.98475V10.772L2.98333 10.7734ZM26.9478 19.2838C31.291 19.2838 34.2161 16.6691 34.2161 11.5632V0.316198H31.1434V11.1974C31.1434 14.7847 29.6659 16.4579 26.9478 16.4579C24.2296 16.4579 22.7535 14.7847 22.7535 11.1974V0.316198H19.6809V11.532C19.6809 16.6691 22.6345 19.2838 26.9478 19.2838ZM41.4504 17.6419C42.7208 18.555 44.7896 19.2838 47.2115 19.2838C50.9052 19.2838 53.7113 17.398 53.7113 13.995C53.7113 11.2896 52.4124 9.6476 49.575 8.58416L46.6513 7.48951C45.1441 6.9436 44.2876 6.39629 44.2876 5.02799C44.2876 3.50796 45.646 2.77915 47.478 2.77915C49.605 2.77915 51.2596 3.59871 52.7669 4.78552V1.53137C51.3192 0.560083 49.4574 0.0127614 47.4185 0.0127614C44.0806 0.0127614 41.3029 1.80645 41.3029 5.08895C41.3029 8.15877 43.1349 9.49588 45.5567 10.4076L48.1869 11.3803C49.812 12.0184 50.7278 12.5969 50.7278 14.0559C50.7278 15.7277 49.2801 16.4877 47.2115 16.4877C45.0845 16.4877 43.105 15.6965 41.4504 14.3296V17.6419ZM64.6902 0.316198H61.619V18.9791H64.6902V0.316198ZM73.456 18.9563H76.4165V6.81458L88.8774 19.2456V0.28784H85.9251V12.2226L73.456 0V18.9563ZM108.077 0.320452V3.11519H100.1V7.6072H107.254V10.3707H100.1V16.1602H108.077V18.9847H97.0886V0.320452H108.077ZM115.231 17.6291C116.501 18.5423 118.569 19.2712 120.992 19.2712C124.684 19.2712 127.492 17.3866 127.492 13.9822C127.492 11.2768 126.192 9.63626 123.356 8.57139L120.431 7.47816C118.923 6.93085 118.067 6.38353 118.067 5.01522C118.067 3.4952 119.425 2.76638 121.257 2.76638C123.384 2.76638 125.039 3.58736 126.546 4.77276V1.52002C125.098 0.547322 123.237 0 121.198 0C117.86 0 115.082 1.79368 115.082 5.0762C115.082 8.14602 116.914 9.48312 119.336 10.3948L121.966 11.3676C123.591 12.0056 124.507 12.5841 124.507 14.0433C124.507 15.7149 123.061 16.4749 120.991 16.4749C118.864 16.4749 116.884 15.6852 115.231 14.3168V17.6291ZM133.786 17.6291C135.056 18.5423 137.125 19.2712 139.547 19.2712C143.241 19.2712 146.047 17.3866 146.047 13.9822C146.047 11.2768 144.746 9.63626 141.911 8.57139L138.986 7.47816C137.48 6.93085 136.622 6.38353 136.622 5.01522C136.622 3.4952 137.982 2.76638 139.812 2.76638C141.939 2.76638 143.595 3.58736 145.102 4.77276V1.52002C143.655 0.547322 141.793 0 139.754 0C136.415 0 133.639 1.79368 133.639 5.0762C133.639 8.14602 135.471 9.48312 137.892 10.3948L140.522 11.3676C142.147 12.0056 143.064 12.5841 143.064 14.0433C143.064 15.7149 141.616 16.4749 139.547 16.4749C137.42 16.4749 135.441 15.6852 133.786 14.3168V17.6291Z" fill="white"/>
</g>
<defs>
<clipPath id="clip0_241_51">
<rect width="146.047" height="46.3418" fill="white"/>
</clipPath>
</defs>
</svg>
