<svg width="40" height="40" viewBox="0 0 40 40" fill="none" xmlns="http://www.w3.org/2000/svg">
<path d="M19.9506 21.9861C21.1605 21.9861 22.1414 21.0052 22.1414 19.7953C22.1414 18.5854 21.1605 17.6045 19.9506 17.6045C18.7406 17.6045 17.7598 18.5854 17.7598 19.7953C17.7598 21.0052 18.7406 21.9861 19.9506 21.9861Z" fill="#6FDBD4"/>
<path d="M19.8821 3.3645C15.5244 3.3645 11.3451 5.09561 8.26368 8.177C5.18228 11.2584 3.45117 15.4377 3.45117 19.7954C3.45117 24.1532 5.18228 28.3324 8.26368 31.4138C11.3451 34.4952 15.5244 36.2263 19.8821 36.2263C24.2399 36.2263 28.4191 34.4952 31.5005 31.4138C34.5819 28.3324 36.313 24.1532 36.313 19.7954C36.313 15.4377 34.5819 11.2584 31.5005 8.177C28.4191 5.09561 24.2399 3.3645 19.8821 3.3645ZM30.5732 10.7037L25.2057 18.3714C25.5911 19.7469 25.417 21.2189 24.7213 22.4666C24.0258 23.7142 22.865 24.6362 21.4923 25.0314C20.9907 25.1771 20.4701 25.2472 19.9478 25.2395C18.5026 25.2601 17.1079 24.7086 16.0676 23.7053C15.0274 22.7019 14.4258 21.328 14.3942 19.8831C14.3826 19.1638 14.5128 18.4493 14.7774 17.7803C15.0419 17.1114 15.4357 16.5011 15.9361 15.9844C16.4366 15.4676 17.034 15.0546 17.6941 14.7687C18.3542 14.4829 19.0642 14.3299 19.7835 14.3185C20.3163 14.3161 20.847 14.386 21.3609 14.5266L29.0286 9.15914C29.1379 9.06562 29.2646 8.99456 29.4014 8.95002C29.5381 8.90546 29.6824 8.88829 29.8259 8.89948C29.9692 8.91067 30.1091 8.95 30.2373 9.01523C30.3655 9.08045 30.4796 9.17029 30.5732 9.27963C30.7428 9.47804 30.8361 9.73054 30.8361 9.99163C30.8361 10.2527 30.7428 10.5052 30.5732 10.7037Z" fill="#6FDBD4"/>
</svg>
