<svg width="57" height="23" viewBox="0 0 57 23" fill="none" xmlns="http://www.w3.org/2000/svg">
<g clip-path="url(#clip0_30_7818)">
<path d="M6.37245 22.3565H0.410156V0.424011H12.6745V6.15674H6.37245V9.70707H12.3104V15.4405H6.37245V22.3565Z" fill="#A0A1A8"/>
<path d="M32.2566 11.3796C32.2566 1.33335 23.2396 0.424011 19.5062 0.424011H13.4961V22.3357H19.5062L19.4969 16.623V6.06616C23.1946 6.06616 26.3363 7.43124 26.3363 11.3445C26.3363 15.2573 23.1946 16.6223 19.4969 16.6223L19.5062 22.3351C24.1517 22.3357 32.2566 21.4464 32.2566 11.3796Z" fill="#A0A1A8"/>
<path d="M39.2514 0.375H33.2891V22.3531H39.2514V0.375Z" fill="#A0A1A8"/>
<path d="M51.4249 16.5516C48.5608 16.5516 46.1905 14.2194 46.1905 11.3594C46.1905 8.49946 48.5608 6.16657 51.4249 6.16657C54.0362 6.16657 55.4016 7.55447 56.3009 9.3824V1.51292C56.3009 1.51292 53.6609 0.329712 51.2007 0.329712C45.7366 0.329712 39.8164 5.35209 39.8164 11.3594C39.8164 18.714 45.4632 22.3884 51.2007 22.3884C53.6601 22.3884 56.3009 21.2066 56.3009 21.2066V13.4056C55.2246 15.2599 54.022 16.5516 51.4249 16.5516Z" fill="#A0A1A8"/>
<path d="M51.4927 15.9098C53.9945 15.9098 56.0226 13.8831 56.0226 11.383C56.0226 8.883 53.9945 6.85632 51.4927 6.85632C48.9909 6.85632 46.9629 8.883 46.9629 11.383C46.9629 13.8831 48.9909 15.9098 51.4927 15.9098Z" fill="#A0A1A8"/>
</g>
<defs>
<clipPath id="clip0_30_7818">
<rect width="56" height="22.1875" fill="white" transform="translate(0.40625 0.265625)"/>
</clipPath>
</defs>
</svg>
