<svg width="40" height="32" viewBox="0 0 40 32" fill="none" xmlns="http://www.w3.org/2000/svg">
<path fill-rule="evenodd" clip-rule="evenodd" d="M17.7386 19.8124V4.80381C17.7386 2.43551 15.8188 0.515625 13.4505 0.515625H4.87412C2.50582 0.515625 0.585938 2.43551 0.585938 4.80381V13.3802C0.585938 15.7485 2.50582 17.6683 4.87412 17.6683H11.3064V19.8124C11.3462 21.8892 9.89179 23.696 7.8544 24.1007C7.37907 24.2075 7.03558 24.6215 7.01821 25.1083V29.3966C7.00227 29.7293 7.13597 30.0518 7.38271 30.2757C7.61077 30.4788 7.91602 30.5728 8.2189 30.5329C13.6664 29.919 17.7732 25.2944 17.7386 19.8124ZM26.3155 0.515625H34.8919C37.2601 0.515625 39.1801 2.43551 39.1801 4.80381V19.8124C39.2035 25.2862 35.0996 29.8985 29.6602 30.5115C29.3574 30.5514 29.0522 30.4574 28.8241 30.2541C28.5945 30.0452 28.4623 29.7499 28.4596 29.4394V25.1513C28.4574 24.6482 28.8051 24.2113 29.2958 24.1007C31.3332 23.696 32.7876 21.8892 32.7477 19.8124V17.6683H26.3155C23.9472 17.6683 22.0274 15.7485 22.0274 13.3802V4.80381C22.0274 2.43551 23.9472 0.515625 26.3155 0.515625Z" fill="#10ACA2"/>
</svg>
