<svg width="34" height="33" viewBox="0 0 34 33" fill="none" xmlns="http://www.w3.org/2000/svg">
<path fill-rule="evenodd" clip-rule="evenodd" d="M16.8836 0.020752C7.82121 0.020752 0.474609 7.36735 0.474609 16.4297C0.474609 25.4921 7.82121 32.8387 16.8836 32.8387C25.946 32.8387 33.2926 25.4921 33.2926 16.4297C33.2926 7.36735 25.946 0.020752 16.8836 0.020752ZM29.5003 14.6065H24.8147C24.7131 11.3198 23.9828 8.08297 22.6632 5.07103C26.3549 6.95143 28.9041 10.5067 29.5003 14.6065ZM16.8833 29.1924H17.7038C19.3629 28.1167 21.2774 24.1238 21.6055 18.2531H12.1612C12.4165 24.1603 14.4038 28.1531 16.0629 29.1924H16.8833ZM12.2342 14.6063C12.5623 8.73557 14.4767 4.74271 16.1358 3.66701H16.8834H17.7039C19.363 4.70624 21.3503 8.69908 21.6055 14.6063H12.2342ZM8.95285 14.6065C9.05449 11.3198 9.78478 8.08297 11.1043 5.07103C7.41272 6.95143 4.86348 10.5067 4.26721 14.6065H8.95285ZM4.26721 18.253H8.95285C9.05449 21.5397 9.78478 24.7765 11.1043 27.7884C7.41272 25.9081 4.86348 22.3528 4.26721 18.253ZM24.8147 18.253C24.7131 21.5397 23.9828 24.7765 22.6632 27.7884C26.3549 25.9081 28.9041 22.3528 29.5003 18.253H24.8147Z" fill="#6FDBD4"/>
</svg>
