<svg width="124" height="46" viewBox="0 0 124 46" fill="none" xmlns="http://www.w3.org/2000/svg">
<path fill-rule="evenodd" clip-rule="evenodd" d="M44.2295 13.6575V27.3152H47.8015H51.1634V22.0623C51.1634 18.5953 51.1634 16.7043 51.1634 16.4941C51.2684 15.9689 51.3735 15.4436 51.6887 15.0233C52.1089 14.2879 52.8443 13.9728 53.6847 14.0778C54.8404 14.1828 55.5758 14.8132 55.7859 16.179C55.7859 16.3891 55.7859 18.4902 55.7859 21.8521V27.2101H59.1478H62.5097V20.9066C62.5097 15.5486 62.5097 14.4981 62.4046 13.9728C62.1945 12.0817 61.5642 10.6109 60.4085 9.5603C59.4629 8.61477 58.3074 8.08948 56.9416 7.87937C56.4163 7.77431 54.9455 7.87937 54.5253 7.98442C53.2645 8.2996 52.319 8.71983 51.4785 9.66536L50.9532 10.0856V5.04279V0H47.5914H44.2295V13.6575ZM115.88 0.210118C115.669 0.63035 108.84 17.1245 108.84 17.1245C108.84 17.1245 110.626 17.1245 112.833 17.1245H116.825L120.397 8.61477C122.393 3.88716 123.969 0 123.969 0C123.969 0 122.182 0 119.976 0H115.984L115.88 0.210118ZM29.7315 7.98442C28.2607 8.19454 27.105 8.61477 25.9494 9.35019C23.6381 10.821 22.1674 13.3424 21.747 16.284C21.537 17.6498 21.642 19.3307 21.9572 20.5914C22.7976 23.8482 25.0039 26.3697 27.8405 27.3152C28.891 27.6303 29.3113 27.7354 30.572 27.7354C31.5175 27.7354 31.8326 27.7354 32.1479 27.6303C33.5136 27.3152 34.4591 26.7899 35.2996 25.9494L35.7198 25.5291V26.3697V27.2101H38.9766H42.2334V17.7549V8.2996H38.9766H35.7198V9.14007V9.98054L35.4047 9.66536C34.6692 8.8249 33.6186 8.2996 32.2528 7.98442C31.8326 7.87937 31.6226 7.87937 30.782 7.87937C30.2568 7.98443 29.8365 7.98442 29.7315 7.98442ZM72.5953 7.98442C70.8092 8.19454 68.9182 9.03501 67.5524 10.0856C64.926 12.2918 63.5603 15.7587 64.0856 19.3307C64.6108 23.3229 67.4475 26.3697 71.4396 27.4202C72.28 27.6303 73.1206 27.7354 74.1711 27.7354C76.0621 27.7354 77.428 27.4203 78.8988 26.6848C81.8403 25.214 83.7314 22.5876 84.1516 19.3307C84.2567 18.4902 84.2567 17.1245 84.1516 16.3891C83.9416 14.8132 83.3112 13.2373 82.3657 11.9767C81.9454 11.4514 81.105 10.5058 80.5797 10.0856C79.1089 8.92996 77.428 8.19454 75.5369 7.98442C74.8015 7.87937 73.3306 7.87937 72.5953 7.98442ZM94.0272 7.98442C92.2412 8.19454 90.4551 8.92996 89.0894 10.0856C88.5641 10.5058 87.6186 11.4514 87.3034 11.9767C86.3579 13.2373 85.8326 14.8132 85.5175 16.3891C85.4124 17.1245 85.4124 18.5953 85.5175 19.3307C86.1477 23.5331 89.1945 26.7899 93.3968 27.6303C94.2372 27.8405 94.6574 27.8405 95.603 27.8405C97.389 27.8405 98.9648 27.5252 100.436 26.6848C104.323 24.6887 106.424 20.2762 105.479 15.7587C104.638 11.5564 101.276 8.50971 96.9688 7.98442C96.2334 7.87937 94.7625 7.87937 94.0272 7.98442ZM0 8.40466C0 8.40466 1.78598 12.712 3.99221 17.9649C6.19844 23.2178 7.98443 27.5252 7.98443 27.5252C7.98443 27.5252 7.35408 29.1011 6.51361 30.9922C5.67315 32.8832 5.04279 34.3541 5.04279 34.4591C5.04279 34.5642 6.61867 34.4591 8.61477 34.4591H12.1867L17.5447 21.537C20.4864 14.393 22.9027 8.61477 22.9027 8.50971C22.9027 8.50971 22.1674 8.40466 19.3307 8.50971H15.7587L13.5526 13.9728C12.607 16.9144 11.6615 19.4358 11.6615 19.4358C11.6615 19.4358 10.7159 16.9144 9.45525 13.9728L7.35408 8.50971H3.67704C1.68094 8.40466 0 8.40466 0 8.40466ZM32.9883 14.0778C34.3541 14.393 35.4047 15.4436 35.8249 16.8094C35.93 17.3347 35.93 18.2802 35.8249 18.8055C35.5097 20.1712 34.4591 21.2217 33.0934 21.537C32.5681 21.642 31.6226 21.642 31.0973 21.537C29.9416 21.2217 28.891 20.3813 28.4708 19.3307C27.9455 18.1751 28.1556 16.7043 28.786 15.6537C29.7315 14.2879 31.3073 13.7626 32.9883 14.0778ZM74.9066 14.1828C76.3774 14.393 77.533 15.5486 77.8482 17.0194C77.9532 17.5447 77.9532 18.3851 77.8482 18.9104C77.533 20.2762 76.4825 21.2217 75.2217 21.642C74.8015 21.747 73.6459 21.747 73.2256 21.642C72.1751 21.3268 71.3345 20.5914 70.8092 19.6459C70.4941 19.0155 70.4941 18.7004 70.4941 17.9649C70.4941 17.3347 70.5992 17.0194 70.8092 16.4941C71.1245 15.8638 71.5447 15.2334 72.1751 14.8132C72.8053 14.1828 73.8559 13.9728 74.9066 14.1828ZM96.2333 14.1828C97.494 14.393 98.5446 15.2334 98.9648 16.3891C99.175 16.9144 99.2801 17.2296 99.2801 17.86C99.2801 18.5953 99.175 18.9104 98.9648 19.5408C98.5446 20.4864 97.5991 21.2217 96.5486 21.537C96.1283 21.642 94.9727 21.642 94.5525 21.537C93.2917 21.2217 92.2412 20.1712 91.926 18.8055C91.8209 18.2802 91.8209 17.3347 91.926 16.8094C92.3462 15.1284 93.817 13.9728 95.498 13.9728C95.7081 14.0778 96.0233 14.0778 96.2333 14.1828ZM110.521 18.8055C108.525 19.0155 107.054 20.4864 106.634 22.3774C106.529 22.9027 106.529 23.8482 106.634 24.3735C107.054 26.0544 108.315 27.2101 109.996 27.6303C110.206 27.6303 110.626 27.7354 110.941 27.7354C112.202 27.7354 113.253 27.3152 114.093 26.4746C115.039 25.5291 115.354 24.5836 115.354 23.3229C115.354 21.747 114.619 20.3813 113.358 19.6459C112.517 18.9104 111.362 18.7004 110.521 18.8055ZM55.1556 29.1011C53.7898 29.5214 53.1595 31.0973 53.8949 32.2528C54.1051 32.5681 54.5253 32.9883 54.8404 33.0934C55.1556 33.1984 55.1556 33.1984 55.7859 33.1984C56.3112 33.1984 56.4163 33.1984 56.7315 33.0934C57.1517 32.8832 57.5719 32.463 57.7821 32.0428C58.3074 30.9922 57.7821 29.7315 56.7315 29.2062C56.4163 28.9961 56.3112 28.9961 55.891 28.9961C55.4708 28.9961 55.3657 28.9961 55.1556 29.1011ZM49.4824 29.2062C47.6965 29.5214 46.5408 30.6771 46.0155 32.5681C45.9105 32.8832 45.9105 33.1984 45.9105 33.6186V34.3541H45.175H44.4397V35.93V37.5058H45.175H45.9105V41.2879V45.0699H47.9066H49.9026V41.2879V37.5058H51.2684H52.6342V35.93V34.3541H51.2684H49.9026V34.0389C50.0077 33.3035 50.3229 32.7781 50.9532 32.6731C51.3735 32.5681 52.0038 32.5681 52.4241 32.7782C52.6342 32.8832 52.7392 32.8832 52.7392 32.8832C52.7392 32.8832 52.7392 32.1479 52.7392 31.2024V29.5214L52.4241 29.4163C52.0038 29.2062 51.4785 29.2062 50.7432 29.2062C50.2179 29.1011 49.7977 29.2062 49.4824 29.2062ZM65.4513 34.1439C64.6109 34.3541 63.9805 34.7743 63.5603 35.2996L63.3501 35.6147V34.9844V34.3541H61.354H59.358V39.7121V45.0699H61.354H63.3501V42.1284C63.3501 40.4474 63.3501 39.0817 63.3501 38.8715C63.4552 38.4513 63.6653 38.0311 63.8754 37.821C64.4007 37.4008 65.3462 37.5058 65.7665 38.0311C66.0816 38.4513 66.0816 38.4513 66.0816 41.8132V44.965H68.0777H70.0739V41.3929C70.0739 37.6108 70.0739 37.1906 69.8637 36.4553C69.6536 35.8249 69.4435 35.2996 68.9182 34.8794C68.498 34.4591 68.0777 34.1439 67.4475 34.0389C66.9222 34.0389 65.8716 34.0389 65.4513 34.1439ZM75.4319 34.0389C74.8015 34.1439 73.856 34.4591 73.3306 34.8794C72.1751 35.7198 71.4396 36.9805 71.1245 38.5564C71.0194 39.1868 71.0194 40.3423 71.1245 40.9727C71.3345 41.9182 71.6498 42.8638 72.1751 43.4941C72.9104 44.4397 73.856 45.0699 75.0116 45.2801C75.6419 45.3852 76.6925 45.3852 77.2178 45.175C77.8482 44.965 78.2684 44.7548 78.7937 44.3346L79.214 43.9144V44.4397V44.965H81.2101H83.2061V39.607V34.249H81.2101H79.214V34.7743V35.2996L78.8988 35.1945C78.3735 34.6692 77.638 34.249 76.7976 34.1439C76.4825 34.0389 75.747 34.0389 75.4319 34.0389ZM90.6653 34.1439C89.9298 34.249 89.1945 34.7743 88.7743 35.2996L88.5641 35.5097V34.8794V34.249H86.568H84.5719V39.607V44.965H86.568H88.5641V41.9182C88.5641 38.6615 88.5641 38.6615 88.7743 38.1361C88.9843 37.7159 89.4045 37.5058 89.8249 37.5058C90.2451 37.5058 90.4551 37.6108 90.7704 37.821C91.1906 38.2412 91.1906 38.1361 91.1906 41.7081V44.8599H93.1867H95.1827V40.9727C95.1827 37.0855 95.1827 37.0855 95.0778 36.6653C94.9727 36.4553 94.8676 36.0349 94.7625 35.7198C94.5525 35.2996 94.4474 35.1945 94.1323 34.8794C93.7119 34.4591 93.3968 34.249 92.9766 34.0389C92.2412 34.0389 91.4007 33.9338 90.6653 34.1439ZM101.066 34.1439C99.2801 34.4591 97.9143 35.2996 97.0738 36.7704C96.5786 37.7609 96.3384 38.6097 96.3384 39.7121C96.3384 39.7121 96.3384 40.9727 96.6536 41.7081C97.284 43.4941 98.7548 44.8599 100.751 45.2801C101.066 45.3852 101.381 45.3852 102.117 45.3852C103.167 45.3852 103.587 45.2801 104.323 44.965L104.743 44.7548V42.9688V41.1829L104.428 41.3929C103.903 41.7082 103.587 41.8132 102.957 41.8132C102.327 41.8132 102.012 41.8132 101.591 41.6031C101.171 41.3929 100.856 41.0778 100.646 40.6576C100.541 40.3423 100.541 40.3423 100.541 39.8171C100.541 39.3968 100.541 39.2918 100.646 38.9766C100.961 38.1361 101.696 37.7159 102.747 37.6108C103.482 37.6108 103.798 37.6108 104.848 38.1361C104.848 38.1361 104.848 37.2957 104.848 36.3502V34.5642L104.533 34.4591C103.377 34.0389 102.117 33.9338 101.066 34.1439ZM110.101 34.1439C107.054 34.6692 105.163 37.2957 105.373 40.3423C105.479 41.3929 105.794 42.3385 106.319 43.0739C107.054 44.2295 108.21 44.965 109.681 45.2801C110.311 45.3852 111.992 45.3852 112.728 45.2801C113.778 45.0699 114.724 44.5448 115.459 43.8093C115.774 43.4941 116.3 42.7587 116.3 42.7587C116.3 42.7587 115.564 42.4435 114.619 42.1284L112.938 41.498L112.728 41.7081C112.412 42.0233 112.202 42.1284 111.782 42.2334C110.626 42.5486 109.471 41.9182 109.261 40.8676V40.6576H112.938H116.615V39.7121C116.615 39.0817 116.615 38.6615 116.51 38.4513C116.3 37.1906 115.774 36.3502 115.039 35.5097C114.303 34.7743 113.463 34.3541 112.307 34.1439C111.887 34.0389 110.626 34.0389 110.101 34.1439ZM53.7898 39.7121V45.0699H55.7859H57.7821V39.7121V34.3541H55.7859H53.7898V39.7121ZM111.677 37.0855C111.992 37.1906 112.097 37.2957 112.412 37.5058C112.622 37.7159 112.833 37.926 112.833 38.2412V38.4513H111.047C109.05 38.4513 109.156 38.4513 109.366 38.0311C109.681 37.2957 110.626 36.8755 111.677 37.0855ZM77.7431 37.6108C78.2684 37.7159 78.8988 38.2412 79.1089 38.7665C79.6342 39.9221 79.1089 41.2879 77.8482 41.7081C77.428 41.8132 76.7976 41.8132 76.3774 41.7081C75.747 41.498 75.1166 40.9727 75.0116 40.3423C74.9066 40.0272 74.9066 39.9221 74.9066 39.607C74.9066 39.1868 74.9066 39.0817 75.1166 38.7665C75.5369 37.821 76.5874 37.4008 77.7431 37.6108Z" fill="white"/>
</svg>
